<svg xmlns="http://www.w3.org/2000/svg" xmlns:xlink="http://www.w3.org/1999/xlink" width="64" height="64" version="1.1" viewBox="0 0 64 64"><title>avatar16</title><desc>Created with Sketch.</desc><g id="Page-1" fill="none" fill-rule="evenodd" stroke="none" stroke-width="1"><g id="dfasd" transform="translate(-5480.000000, -3805.000000)"><g id="Group-35" transform="translate(5495.000000, 3818.000000)"><polyline id="Fill-74" fill="#E0C88E" points="22.5 35 10 35 10 37 25 37 25 35 22.5 35"/><polygon id="Fill-75" fill="#E0C88E" points="13 20 18 20 18 15 13 15"/><polygon id="Fill-76" fill="#E0C88E" points="13 12 18 12 18 10 13 10"/><path id="Fill-77" fill="#F1D798" d="M20.4997634,27.5015693 L25.5003363,27.5015693 L25.5003363,24.9997011 L20.4997634,24.9997011 L20.4997634,27.5015693 Z M30.4995641,15 L25.5003363,15 L25.5003363,17.5006725 L20.4997634,17.5006725 L20.4997634,15 L17.9997758,15 L17.9997758,20.0004484 L13.0002491,20.0004484 L13.0002491,15 L10.4995143,15 L10.4995143,17.5006725 L5.49998755,17.5006725 L5.49998755,15 L3,15 L3,27.5015693 L5.49998755,27.5015693 L5.49998755,32.5000747 L7.99952672,32.5000747 L7.99952672,35 L28.0001744,35 L28.0001744,32.5000747 L30.4995641,32.5000747 L30.4995641,27.5015693 L33,27.5015693 L33,15 L30.4995641,15 L30.4995641,15 Z"/><polyline id="Fill-78" fill="#F1D798" points="22.801 12 30 12 30 10 18 10 18 12 22.801 12"/><polyline id="Fill-79" fill="#F1D798" points="9.666 12 12 12 12 10 5 10 5 12 9.666 12"/><polygon id="Fill-80" fill="#DE4447" points="20 27 25 27 25 25 20 25"/><polyline id="Fill-81" fill="#FFF" points="32.5 20.5 32.5 28 29.999 28 29.999 32.999 27.5 32.999 27.5 35.499 25 35.499 25 38 35 38 35 18 32.5 18 32.5 20.5"/><polyline id="Fill-82" fill="#FFF" points="32.5 7.501 29.999 7.501 29.999 4.999 27.5 4.999 27.5 2.499 25 2.499 25 0 2.501 0 2.501 2.499 0 2.499 0 7.501 2.501 7.501 2.501 12.5 5 12.5 5 10.001 29.999 10.001 29.999 12.5 32.5 12.5 32.5 15 35 15 35 10.001 32.5 10.001 32.5 7.501"/><polyline id="Fill-83" fill="#FFF" points="7.667 32.999 5.333 32.999 5.333 28 3 28 3 38 10 38 10 35.498 7.667 35.498 7.667 32.999"/><polygon id="Fill-84" fill="#1A1918" points="33 17 35 17 35 15 33 15"/><polyline id="Fill-85" fill="#1A1918" points="30.5 13 3 13 3 15.5 5.5 15.5 5.5 18 10.5 18 10.5 15.5 20.5 15.5 20.5 18 25.5 18 25.5 15.5 33 15.5 33 13 30.5 13"/></g></g></g></svg>