<svg xmlns="http://www.w3.org/2000/svg" xmlns:xlink="http://www.w3.org/1999/xlink" width="64" height="64" version="1.1" viewBox="0 0 64 64"><title>avatar17</title><desc>Created with Sketch.</desc><g id="Page-1" fill="none" fill-rule="evenodd" stroke="none" stroke-width="1"><g id="dfasd" transform="translate(-5480.000000, -3886.000000)"><g id="Group-29" transform="translate(5495.000000, 3898.000000)"><polygon id="Fill-171" fill="#FFF" points="23 7 25 7 25 5 23 5"/><polyline id="Fill-172" fill="#DE4447" points="17.667 33 13 33 13 35 20 35 20 33 17.667 33"/><polygon id="Fill-173" fill="#E0C88E" points="8 37 10 37 10 35 8 35"/><polygon id="Fill-174" fill="#FFF" points="5 7 7 7 7 5 5 5"/><polygon id="Fill-175" fill="#E0C88E" points="28 32 30 32 30 30 28 30"/><polygon id="Fill-176" fill="#E0C88E" points="25 27 27 27 27 25 25 25"/><polygon id="Fill-177" fill="#E0C88E" points="23 32 25 32 25 30 23 30"/><polyline id="Fill-178" fill="#E0C88E" points="20 38 10 38 10 40 25 40 25 38 20 38"/><polyline id="Fill-179" fill="#E0C88E" points="17 20.5 17 13 15 13 15 23 17 23 17 20.5"/><polygon id="Fill-180" fill="#E0C88E" points="8 32 10 32 10 30 8 30"/><polygon id="Fill-181" fill="#E0C88E" points="5 27 7 27 7 25 5 25"/><polygon id="Fill-182" fill="#E0C88E" points="3 32 5 32 5 30 3 30"/><path id="Fill-183" fill="#F1D798" d="M25.5006725,28.0011957 L28.0004484,28.0011957 L28.0004484,25.4992527 L25.5006725,25.4992527 L25.5006725,28.0011957 Z M23,33.0005978 L25.5006725,33.0005978 L25.5006725,30.5001495 L23,30.5001495 L23,33.0005978 Z M18.0004484,35.4995516 L13,35.4995516 L13,33.0005978 L20.5000747,33.0005978 L20.5000747,35.4995516 L18.0004484,35.4995516 L18.0004484,35.4995516 Z M8.00044836,33.0005978 L10.5002242,33.0005978 L10.5002242,30.5001495 L8.00044836,30.5001495 L8.00044836,33.0005978 Z M5.50067255,28.0011957 L8.00044836,28.0011957 L8.00044836,25.4992527 L5.50067255,25.4992527 L5.50067255,28.0011957 Z M5.50067255,20.4998505 L8.00044836,20.4998505 L8.00044836,17.9994022 L5.50067255,17.9994022 L5.50067255,20.4998505 Z M18.0004484,25.4992527 L20.5000747,25.4992527 L20.5000747,28.0011957 L18.0004484,28.0011957 L18.0004484,30.5001495 L15.5006725,30.5001495 L15.5006725,28.0011957 L13,28.0011957 L13,25.4992527 L18.0004484,25.4992527 L18.0004484,25.4992527 Z M25.5006725,20.4998505 L28.0004484,20.4998505 L28.0004484,17.9994022 L25.5006725,17.9994022 L25.5006725,20.4998505 Z M30.5002242,17.9994022 L30.5002242,15.4989538 L28.0004484,15.4989538 L28.0004484,13 L18.0004484,13 L18.0004484,23.0002989 L15.5006725,23.0002989 L15.5006725,13 L3,13 L3,30.5001495 L5.50067255,30.5001495 L5.50067255,35.4995516 L10.5002242,35.4995516 L10.5002242,38 L28.0004484,38 L28.0004484,35.4995516 L30.5002242,35.4995516 L30.5002242,33.0005978 L28.0004484,33.0005978 L28.0004484,30.5001495 L33,30.5001495 L33,17.9994022 L30.5002242,17.9994022 L30.5002242,17.9994022 Z"/><polyline id="Fill-184" fill="#929392" points="32.499 10.461 30 10.461 30 8 2.5 8 2.5 10.461 0 10.461 0 17.845 2.5 17.845 2.5 12.923 27.5 12.923 27.5 15.383 30 15.383 30 17.845 32.499 17.845 32.499 30.155 30 30.155 30 35.077 27.5 35.077 27.5 37.539 25 37.539 25 40 35 40 35 10.461 32.499 10.461"/><polyline id="Fill-185" fill="#929392" points="7.667 35.333 5.334 35.333 5.334 33 3 33 3 40 10 40 10 37.667 7.667 37.667 7.667 35.333"/><polygon id="Fill-186" fill="#1A1918" points="30 10 32 10 32 8 30 8"/><polyline id="Fill-187" fill="#1A1918" points="27.6 4.665 27.6 2.332 25.2 2.332 25.2 0 22.8 0 22.8 2.332 20.4 2.332 20.4 4.665 18 4.665 18 7 22.8 7 22.8 4.665 25.2 4.665 25.2 7 30 7 30 4.665 27.6 4.665"/><polygon id="Fill-188" fill="#1A1918" points="25 20 27 20 27 18 25 18"/><polyline id="Fill-189" fill="#1A1918" points="15.334 25 13 25 13 27.501 15.334 27.501 15.334 30 17.667 30 17.667 27.501 20 27.501 20 25 15.334 25"/><polyline id="Fill-190" fill="#1A1918" points="13 4.665 10.5 4.665 10.5 2.332 8 2.332 8 0 5.501 0 5.501 2.332 3 2.332 3 7 5.501 7 5.501 4.665 8 4.665 8 7 13 7 13 4.665"/><polygon id="Fill-191" fill="#1A1918" points="5 20 7 20 7 18 5 18"/><polygon id="Fill-192" fill="#1A1918" points="0 10 2 10 2 8 0 8"/></g></g></g></svg>