<svg xmlns="http://www.w3.org/2000/svg" xmlns:xlink="http://www.w3.org/1999/xlink" width="64" height="64" version="1.1" viewBox="0 0 64 64"><title>avatar14</title><desc>Created with Sketch.</desc><g id="Page-1" fill="none" fill-rule="evenodd" stroke="none" stroke-width="1"><g id="dfasd" transform="translate(-5480.000000, -3635.000000)"><g id="Group-27" transform="translate(5492.000000, 3648.000000)"><polygon id="Fill-86" fill="#E4C361" points="35 27 37 27 37 25 35 25"/><polyline id="Fill-87" fill="#E4C361" points="25 35 15 35 15 37 30 37 30 35 25 35"/><polygon id="Fill-88" fill="#E4C361" points="17 25 22 25 22 13 17 13"/><path id="Fill-89" fill="#FBD568" d="M24.1818048,20.3327975 L29.0905356,20.3327975 L29.0905356,17.8894085 L24.1818048,17.8894085 L24.1818048,20.3327975 Z M24.1818048,32.5558803 L21.7266324,32.5558803 L21.7266324,27.6663257 L26.6362436,27.6663257 L26.6362436,32.5558803 L24.1818048,32.5558803 L24.1818048,32.5558803 Z M9.45443874,20.3327975 L14.3639032,20.3327975 L14.3639032,17.8894085 L9.45443874,17.8894085 L9.45443874,20.3327975 Z M31.5448276,15.4452888 L29.0905356,15.4452888 L29.0905356,13 L21.7266324,13 L21.7266324,25.2229367 L16.8183419,25.2229367 L16.8183419,13 L7,13 L7,27.6663257 L9.45443874,27.6663257 L9.45443874,32.5558803 L11.9088775,32.5558803 L11.9088775,35 L31.5448276,35 L31.5448276,32.5558803 L34,32.5558803 L34,17.8894085 L31.5448276,17.8894085 L31.5448276,15.4452888 L31.5448276,15.4452888 Z"/><polyline id="Fill-90" fill="#E678A5" points="34.533 10.499 9.867 10.499 9.867 8 2.466 8 2.466 10.499 0 10.499 0 13 37 13 37 10.499 34.533 10.499"/><polygon id="Fill-91" fill="#EB9177" points="22 33 27 33 27 28 22 28"/><polyline id="Fill-92" fill="#FFF" points="34.546 8 10 8 10 10 37 10 37 8 34.546 8"/><polyline id="Fill-93" fill="#1A1918" points="37.501 30.5 37.501 28 35.001 28 35.001 33.001 32.5 33.001 32.5 35.5 30 35.5 30 38 37.501 38 37.501 35.5 40 35.5 40 33.001 37.501 33.001 37.501 30.5"/><polyline id="Fill-94" fill="#1A1918" points="34.667 22.6 34.667 25 37 25 37 13 30 13 30 15.401 32.333 15.401 32.333 17.8 34.667 17.8 34.667 22.6"/><polygon id="Fill-95" fill="#1A1918" points="25 20 30 20 30 18 25 18"/><polygon id="Fill-96" fill="#1A1918" points="10 20 15 20 15 18 10 18"/><polyline id="Fill-97" fill="#1A1918" points="11.909 7 34 7 34 4.666 29.091 4.666 29.091 2.334 24.182 2.334 24.182 0 11.909 0 11.909 2.334 9.454 2.334 9.454 4.666 7 4.666 7 7 11.909 7"/><polyline id="Fill-98" fill="#1A1918" points="7.5 38 15 38 15 35.5 12.5 35.5 12.5 33.001 10 33.001 10 28 7.5 28 7.5 33.001 5 33.001 5 35.5 7.5 35.5 7.5 38"/></g></g></g></svg>