<svg xmlns="http://www.w3.org/2000/svg" xmlns:xlink="http://www.w3.org/1999/xlink" width="64" height="64" version="1.1" viewBox="0 0 64 64"><title>avatar18</title><desc>Created with Sketch.</desc><g id="Page-1" fill="none" fill-rule="evenodd" stroke="none" stroke-width="1"><g id="dfasd" transform="translate(-5565.000000, -3725.000000)"><g id="Group-36" transform="translate(5581.000000, 3738.000000)"><polyline id="Fill-163" fill="#DE4447" points="14.667 30 17 30 17 28 10 28 10 30 14.667 30"/><polyline id="Fill-164" fill="#ECC874" points="19.499 35 7 35 7 37 22 37 22 35 19.499 35"/><polygon id="Fill-165" fill="#ECC874" points="10 25 15 25 15 13 10 13"/><polygon id="Fill-166" fill="#1A1918" points="20 20 22 20 22 18 20 18"/><polygon id="Fill-167" fill="#1A1918" points="3 20 5 20 5 18 3 18"/><path id="Fill-168" fill="#FCD36B" d="M2.45505236,20.3337718 L4.90951778,20.3337718 L4.90951778,17.8876711 L2.45505236,17.8876711 L2.45505236,20.3337718 Z M12.2732075,27.6656437 L17.1818449,27.6656437 L17.1818449,30.1115982 L9.8180084,30.1115982 L9.8180084,27.6656437 L12.2732075,27.6656437 L12.2732075,27.6656437 Z M19.6361635,20.3337718 L22.0915094,20.3337718 L22.0915094,17.8876711 L19.6361635,17.8876711 L19.6361635,20.3337718 Z M24.5458281,13 L14.7276729,13 L14.7276729,25.2215889 L9.8180084,25.2215889 L9.8180084,13 L0,13 L0,27.6656437 L2.45505236,27.6656437 L2.45505236,32.5550684 L4.90951778,32.5550684 L4.90951778,35 L22.0915094,35 L22.0915094,32.5550684 L24.5458281,32.5550684 L24.5458281,30.1115982 L27,30.1115982 L27,15.4442009 L24.5458281,15.4442009 L24.5458281,13 L24.5458281,13 Z"/><polyline id="Fill-169" fill="#51C1E3" points="32.5 32.067 32.5 27.133 29.999 27.133 29.999 7.399 27.5 7.399 27.5 2.466 22.5 2.466 22.5 0 5 0 5 2.466 2.5 2.466 2.5 4.933 0 4.933 0 12.334 25 12.334 25 14.8 27.5 14.8 27.5 29.601 25 29.601 25 32.067 22.5 32.067 22.5 37 29.999 37 29.999 34.534 35 34.534 35 32.067 32.5 32.067"/><polyline id="Fill-170" fill="#51C1E3" points="4.667 33.001 2.334 33.001 2.334 28 0 28 0 38 7 38 7 35.501 4.667 35.501 4.667 33.001"/></g></g></g></svg>