<svg xmlns="http://www.w3.org/2000/svg" xmlns:xlink="http://www.w3.org/1999/xlink" width="64" height="64" version="1.1" viewBox="0 0 64 64"><title>avatar6</title><desc>Created with Sketch.</desc><g id="Page-1" fill="none" fill-rule="evenodd" stroke="none" stroke-width="1"><g id="dfasd" transform="translate(-5218.000000, -3725.000000)"><g id="Group-18" transform="translate(5231.000000, 3738.000000)"><polygon id="Fill-138" fill="#D1B340" points="29.031 28.734 31.638 28.734 31.638 26.129 29.031 26.129"/><polygon id="Fill-139" fill="#D1B340" points="26.423 33.95 29.031 33.95 29.031 26.129 26.423 26.129"/><polygon id="Fill-140" fill="#D1B340" points="23.816 36.557 26.423 36.557 26.423 28.734 23.816 28.734"/><polygon id="Fill-141" fill="#D1B340" points="21.209 33.95 23.816 33.95 23.816 31.341 21.209 31.341"/><polyline id="Fill-142" fill="#E77E62" points="13.388 33.95 18.603 33.95 18.603 28.734 10.781 28.734 10.781 31.341 13.388 31.341 13.388 33.95"/><polyline id="Fill-143" fill="#ECC847" points="13.388 13.093 10.781 13.093 10.781 26.129 13.388 26.129 13.388 23.521 15.994 23.521 15.994 13.093 13.388 13.093"/><polygon id="Fill-144" fill="#C7AB3E" points="29.031 20.913 31.638 20.913 31.638 15.7 29.031 15.7"/><polygon id="Fill-145" fill="#C7AB3E" points="26.423 15.7 29.031 15.7 29.031 13.093 26.423 13.093"/><path id="Fill-146" fill="#C7AB3E" d="M15.9941393,33.9502234 L13.3882814,33.9502234 L13.3882814,31.3414041 L10.7805531,31.3414041 L10.7805531,28.7344552 L18.6032703,28.7344552 L18.6032703,33.9502234 L15.9941393,33.9502234 L15.9941393,33.9502234 Z M21.2091283,31.3414041 L21.2091283,26.1285972 L8.17344828,26.1285972 L8.17344828,28.7344552 L5.56572,28.7344552 L5.56572,26.1285972 L0.351510345,26.1285972 L0.351510345,28.7344552 L2.95861517,28.7344552 L2.95861517,33.9502234 L5.56572,33.9502234 L5.56572,36.5571724 L8.17344828,36.5571724 L8.17344828,39.1630303 L23.8159214,39.1630303 L23.8159214,33.9502234 L21.2091283,33.9502234 L21.2091283,31.3414041 L21.2091283,31.3414041 Z"/><path id="Fill-147" fill="#FBD44A" d="M21.2091283,20.9126731 L23.8159214,20.9126731 L23.8159214,18.3055683 L21.2091283,18.3055683 L21.2091283,20.9126731 Z M29.0309103,20.9126731 L29.0309103,15.6998662 L26.4230262,15.6998662 L26.4230262,13.0927614 L15.9941393,13.0927614 L15.9941393,23.5205572 L13.3882814,23.5205572 L13.3882814,26.1285972 L21.2091283,26.1285972 L21.2091283,31.3414041 L23.8159214,31.3414041 L23.8159214,28.7344552 L26.4230262,28.7344552 L26.4230262,26.1285972 L31.6384828,26.1285972 L31.6384828,20.9126731 L29.0309103,20.9126731 L29.0309103,20.9126731 Z"/><path id="Fill-148" fill="#FBD44A" d="M2.95861517,20.9126731 L5.56572,20.9126731 L5.56572,18.3055683 L2.95861517,18.3055683 L2.95861517,20.9126731 Z M5.56572,13.0927614 L0.351510345,13.0927614 L0.351510345,26.1285972 L5.56572,26.1285972 L5.56572,28.7344552 L8.17344828,28.7344552 L8.17344828,26.1285972 L10.7805531,26.1285972 L10.7805531,13.0927614 L5.56572,13.0927614 L5.56572,13.0927614 Z"/><polyline id="Fill-149" fill="#CFEBF3" points="36.852 18.306 34.246 18.306 34.246 20.913 39.458 20.913 39.458 18.306 36.852 18.306"/><polygon id="Fill-150" fill="#CFEBF3" points="29.031 15.7 34.246 15.7 34.246 13.093 29.031 13.093"/><polygon id="Fill-151" fill="#CFEBF3" points="26.423 7.877 29.031 7.877 29.031 5.271 26.423 5.271"/><polygon id="Fill-152" fill="#CFEBF3" points="23.816 10.484 26.423 10.484 26.423 7.877 23.816 7.877"/><polygon id="Fill-153" fill="#CFEBF3" points="21.209 2.664 23.816 2.664 23.816 .055 21.209 .055"/><polygon id="Fill-154" fill="#CFEBF3" points="18.603 13.093 21.209 13.093 21.209 10.484 18.603 10.484"/><polygon id="Fill-155" fill="#CFEBF3" points="15.994 7.877 18.603 7.877 18.603 5.271 15.994 5.271"/><polygon id="Fill-156" fill="#CFEBF3" points="13.388 5.271 15.994 5.271 15.994 2.664 13.388 2.664"/><polygon id="Fill-157" fill="#CFEBF3" points="8.173 13.093 10.781 13.093 10.781 10.484 8.173 10.484"/><polygon id="Fill-158" fill="#CFEBF3" points="5.566 10.484 8.173 10.484 8.173 7.877 5.566 7.877"/><polygon id="Fill-159" fill="#CFEBF3" points="5.566 5.271 8.173 5.271 8.173 2.664 5.566 2.664"/><polygon id="Fill-160" fill="#CFEBF3" points=".352 13.093 2.959 13.093 2.959 10.484 .352 10.484"/><polygon id="Fill-161" fill="#1A1918" points="21.209 20.913 23.816 20.913 23.816 18.306 21.209 18.306"/><polygon id="Fill-162" fill="#1A1918" points="2.959 20.913 5.566 20.913 5.566 18.306 2.959 18.306"/><polygon id="Fill-163" fill="#FFF" points="36.852 23.521 39.458 23.521 39.458 20.913 36.852 20.913"/><polyline id="Fill-164" fill="#FFF" points="36.852 10.484 36.852 13.093 34.246 13.093 34.246 15.7 31.638 15.7 31.638 20.913 34.246 20.913 34.246 18.306 36.852 18.306 36.852 15.7 39.458 15.7 39.458 10.484 36.852 10.484"/><path id="Fill-165" fill="#FFF" d="M15.9941393,7.87714897 L15.9941393,5.27113517 L13.3882814,5.27113517 L13.3882814,2.66434207 L15.9941393,2.66434207 L15.9941393,5.27113517 L18.6032703,5.27113517 L18.6032703,7.87714897 L15.9941393,7.87714897 L15.9941393,7.87714897 Z M31.6384828,10.4839421 L31.6384828,5.27113517 L29.0309103,5.27113517 L29.0309103,7.87714897 L26.4230262,7.87714897 L26.4230262,10.4839421 L23.8159214,10.4839421 L23.8159214,7.87714897 L26.4230262,7.87714897 L26.4230262,5.27113517 L29.0309103,5.27113517 L29.0309103,2.66434207 L21.2091283,2.66434207 L21.2091283,0.0552110345 L8.17344828,0.0552110345 L8.17344828,5.27113517 L2.95861517,5.27113517 L2.95861517,7.87714897 L0.351510345,7.87714897 L0.351510345,10.4839421 L2.95861517,10.4839421 L2.95861517,13.0927614 L8.17344828,13.0927614 L8.17344828,10.4839421 L5.56572,10.4839421 L5.56572,7.87714897 L8.17344828,7.87714897 L8.17344828,10.4839421 L10.7805531,10.4839421 L10.7805531,13.0927614 L18.6032703,13.0927614 L18.6032703,10.4839421 L21.2091283,10.4839421 L21.2091283,13.0927614 L31.6384828,13.0927614 L31.6384828,10.4839421 L31.6384828,10.4839421 Z"/></g></g></g></svg>