<svg xmlns="http://www.w3.org/2000/svg" xmlns:xlink="http://www.w3.org/1999/xlink" width="64" height="64" version="1.1" viewBox="0 0 64 64"><title>avatar21</title><desc>Created with Sketch.</desc><g id="Page-1" fill="none" fill-rule="evenodd" stroke="none" stroke-width="1"><g id="dfasd" transform="translate(-5650.000000, -3886.000000)"><g id="Group-32" transform="translate(5665.000000, 3901.000000)"><polyline id="Fill-57" fill="#9C9D9C" points="32.5 29.999 32.5 12.499 29.999 12.499 29.999 5.001 27.501 5.001 27.501 2.499 22.5 2.499 22.5 0 5.001 0 5.001 2.499 2.5 2.499 2.5 5.001 0 5.001 0 10 27.501 10 27.501 15 29.999 15 29.999 25 27.501 25 27.501 29.999 25 29.999 25 32.498 22.5 32.498 22.5 35 35 35 35 29.999 32.5 29.999"/><polyline id="Fill-58" fill="#9C9D9C" points="4.667 29.999 2.333 29.999 2.333 25 0 25 0 35 7 35 7 32.498 4.667 32.498 4.667 29.999"/><polyline id="Fill-59" fill="#E4C361" points="19.5 33 7 33 7 35 22 35 22 33 19.5 33"/><polyline id="Fill-60" fill="#E4C361" points="17 25 17 20 14.5 20 14.5 10 12 10 12 25 17 25"/><path id="Fill-61" fill="#FBD568" d="M20,17.3333333 L25.0007473,17.3333333 L25.0007473,14.8898632 L20,14.8898632 L20,17.3333333 Z M2.50037364,17.3333333 L7.50112091,17.3333333 L7.50112091,14.8898632 L2.50037364,14.8898632 L2.50037364,17.3333333 Z M27.5011209,14.8898632 L27.5011209,10 L15.0007473,10 L15.0007473,19.7782649 L17.5011209,19.7782649 L17.5011209,24.6681281 L12.5003736,24.6681281 L12.5003736,10 L0,10 L0,24.6681281 L2.50037364,24.6681281 L2.50037364,29.5565298 L5.00074727,29.5565298 L5.00074727,32 L15.0007473,32 L15.0007473,29.5565298 L12.5003736,29.5565298 L12.5003736,27.1130597 L20,27.1130597 L20,32 L25.0007473,32 L25.0007473,29.5565298 L27.5011209,29.5565298 L27.5011209,24.6681281 L30,24.6681281 L30,14.8898632 L27.5011209,14.8898632 L27.5011209,14.8898632 Z"/><polyline id="Fill-62" fill="#EB9177" points="16.668 28 12 28 12 30.5 14.334 30.5 14.334 33 19 33 19 28 16.668 28"/><polygon id="Fill-63" fill="#1A1918" points="20 17 25 17 25 15 20 15"/><polygon id="Fill-64" fill="#1A1918" points="2 17 7 17 7 15 2 15"/></g></g></g></svg>