<svg xmlns="http://www.w3.org/2000/svg" xmlns:xlink="http://www.w3.org/1999/xlink" width="64" height="64" version="1.1" viewBox="0 0 64 64"><title>avatar13</title><desc>Created with Sketch.</desc><g id="Page-1" fill="none" fill-rule="evenodd" stroke="none" stroke-width="1"><g id="dfasd" transform="translate(-5310.000000, -3886.000000)"><g id="Group-22" transform="translate(5326.000000, 3899.000000)"><polygon id="Fill-70" fill="#BF665D" points="8 33 11 33 11 30 8 30"/><polyline id="Fill-71" fill="#69422A" points="33 21.5 33 19 30 19 30 24 33 24 33 21.5"/><polygon id="Fill-72" fill="#69422A" points="11 14 16 14 16 11 11 11"/><polyline id="Fill-73" fill="#69422A" points="13.334 39 24 39 24 36 8 36 8 39 13.334 39"/><polyline id="Fill-74" fill="#69422A" points="10.748 28 16.248 28 16.248 25.25 19 25.25 19 22.501 16.248 22.501 16.248 17 10.748 17 10.748 22.501 8 22.501 8 25.25 10.748 25.25 10.748 28"/><path id="Fill-75" fill="#7A4C32" d="M8.25082196,33.2868733 L10.999452,33.2868733 L10.999452,30.5737467 L8.25082196,30.5737467 L8.25082196,33.2868733 Z M30.249726,25.1426253 L30.249726,17 L24.749178,17 L24.749178,19.716372 L19.2519179,19.716372 L19.2519179,17 L16.5,17 L16.5,22.4294987 L19.2519179,22.4294987 L19.2519179,25.1426253 L16.5,25.1426253 L16.5,27.8573747 L10.999452,27.8573747 L10.999452,25.1426253 L8.25082196,25.1426253 L8.25082196,22.4294987 L10.999452,22.4294987 L10.999452,17 L8.25082196,17 L8.25082196,19.716372 L2.75027399,19.716372 L2.75027399,17 L0,17 L0,27.8573747 L2.75027399,27.8573747 L2.75027399,33.2868733 L5.50054797,33.2868733 L5.50054797,36 L27.499452,36 L27.499452,33.2868733 L30.249726,33.2868733 L30.249726,27.8573747 L33,27.8573747 L33,25.1426253 L30.249726,25.1426253 L30.249726,25.1426253 Z"/><polyline id="Fill-76" fill="#7A4C32" points="21.501 14 27 14 27 11 16 11 16 14 21.501 14"/><polyline id="Fill-77" fill="#7A4C32" points="5.501 14 11 14 11 11 0 11 0 14 5.501 14"/><polyline id="Fill-78" fill="#FAD82B" points="30.25 5.333 30.25 2.666 27.499 2.666 27.499 0 2.75 0 2.75 2.666 0 2.666 0 10.667 27.499 10.667 27.499 13.333 30.25 13.333 30.25 16 33 16 33 5.333 30.25 5.333"/><polygon id="Fill-79" fill="#1A1918" points="30 20 33 20 33 17 30 17"/><polyline id="Fill-80" fill="#1A1918" points="2.728 19 8.183 19 8.183 16.499 19.093 16.499 19.093 19 24.545 19 24.545 16.499 30 16.499 30 14 0 14 0 16.499 2.728 16.499 2.728 19"/></g></g></g></svg>