<svg xmlns="http://www.w3.org/2000/svg" xmlns:xlink="http://www.w3.org/1999/xlink" width="64" height="64" version="1.1" viewBox="0 0 64 64"><title>avatar15</title><desc>Created with Sketch.</desc><g id="Page-1" fill="none" fill-rule="evenodd" stroke="none" stroke-width="1"><g id="dfasd" transform="translate(-5480.000000, -3725.000000)"><g id="Group-28" transform="translate(5496.000000, 3738.000000)"><g id="Group-26"><polygon id="Fill-99" fill="#DB3B35" points="13.017 17.677 15.51 17.677 15.51 15.158 13.017 15.158"/><polyline id="Fill-100" fill="#A86F29" points="20.495 35.304 8.031 35.304 8.031 37.822 22.988 37.822 22.988 35.304 20.495 35.304"/><polyline id="Fill-101" fill="#A86F29" points="15.51 22.712 15.51 17.677 13.017 17.677 13.017 25.232 15.51 25.232 15.51 22.712"/><polygon id="Fill-102" fill="#A86F29" points="13.017 15.158 15.51 15.158 15.51 12.639 13.017 12.639"/><path id="Fill-103" fill="#B6782C" d="M13.0168652,32.7838881 L10.5232887,32.7838881 L10.5232887,27.7492201 L18.0022297,27.7492201 L18.0022297,30.2661777 L15.5096964,30.2661777 L15.5096964,32.7838881 L13.0168652,32.7838881 L13.0168652,32.7838881 Z M5.5380732,20.193831 L8.03060644,20.193831 L8.03060644,17.6770239 L5.5380732,17.6770239 L5.5380732,20.193831 Z M20.495061,20.193831 L22.9884884,20.193831 L22.9884884,17.6770239 L20.495061,17.6770239 L20.495061,20.193831 Z M27.9738529,15.1581093 L27.9738529,12.6391947 L15.5096964,12.6391947 L15.5096964,25.2315098 L13.0168652,25.2315098 L13.0168652,12.6391947 L0.551814491,12.6391947 L0.551814491,27.7492201 L3.04524191,27.7492201 L3.04524191,32.7838881 L5.5380732,32.7838881 L5.5380732,35.3037059 L25.4813197,35.3037059 L25.4813197,32.7838881 L27.9738529,32.7838881 L27.9738529,27.7492201 L30.4666842,27.7492201 L30.4666842,15.1581093 L27.9738529,15.1581093 L27.9738529,15.1581093 Z"/><polyline id="Fill-104" fill="#EB9177" points="13.017 27.749 10.523 27.749 10.523 32.784 15.51 32.784 15.51 30.266 18.002 30.266 18.002 27.749 13.017 27.749"/><polygon id="Fill-105" fill="#1A1918" points="20.495 20.194 22.988 20.194 22.988 17.677 20.495 17.677"/><polygon id="Fill-106" fill="#1A1918" points="5.538 20.194 8.031 20.194 8.031 17.677 5.538 17.677"/><polyline id="Fill-107" fill="#1A1918" points="5.538 37.822 8.031 37.822 8.031 35.304 5.538 35.304 5.538 32.784 3.045 32.784 3.045 27.749 .552 27.749 .552 37.822 5.538 37.822"/><polyline id="Fill-108" fill="#1A1918" points="5.538 12.639 27.974 12.639 27.974 15.158 30.467 15.158 30.467 27.749 27.974 27.749 27.974 32.784 25.481 32.784 25.481 35.304 22.988 35.304 22.988 37.822 30.467 37.822 30.467 32.784 32.96 32.784 32.96 7.605 30.467 7.605 30.467 5.087 27.974 5.087 27.974 2.567 25.481 2.567 25.481 .049 5.538 .049 5.538 2.567 3.045 2.567 3.045 5.087 .552 5.087 .552 12.639 5.538 12.639"/></g></g></g></g></svg>