<svg xmlns="http://www.w3.org/2000/svg" xmlns:xlink="http://www.w3.org/1999/xlink" width="64" height="64" version="1.1" viewBox="0 0 64 64"><title>avatar1</title><desc>Created with Sketch.</desc><g id="Page-1" fill="none" fill-rule="evenodd" stroke="none" stroke-width="1"><g id="dfasd" transform="translate(-5048.000000, -3635.000000)"><g id="Group-37" transform="translate(5048.000000, 3635.000000)"><g id="Group-38"><g id="Group-13" transform="translate(16.000000, -2.000000)"><polygon id="Fill-30" fill="#7EBD55" points="30.111 41.552 32.823 41.552 32.823 38.827 30.111 38.827"/><polygon id="Fill-31" fill="#B2B3B2" points="30.111 38.827 32.823 38.827 32.823 36.102 30.111 36.102"/><polyline id="Fill-32" fill="#E0C88E" points="30.111 33.378 30.111 36.102 32.823 36.102 32.823 30.651 30.111 30.651 30.111 33.378"/><polyline id="Fill-33" fill="#E0C88E" points="19.264 49.728 8.415 49.728 8.415 52.452 24.687 52.452 24.687 49.728 19.264 49.728"/><polyline id="Fill-34" fill="#E0C88E" points="16.551 38.827 16.551 30.651 13.84 30.651 13.84 25.202 11.127 25.202 11.127 38.827 16.551 38.827"/><polyline id="Fill-35" fill="#55C2E4" points="16.551 14.301 16.551 8.853 13.84 8.853 13.84 .676 11.127 .676 11.127 14.301 8.415 14.301 8.415 19.753 16.551 19.753 16.551 17.028 19.264 17.028 19.264 14.301 16.551 14.301"/><path id="Fill-36" fill="#F1D798" d="M2.99040117,30.6513348 L5.70219483,30.6513348 L5.70219483,27.9266521 L2.99040117,27.9266521 L2.99040117,30.6513348 Z M8.41496126,44.2776807 L13.8395213,44.2776807 L13.8395213,41.5515318 L8.41496126,41.5515318 L8.41496126,44.2776807 Z M13.8395213,27.9266521 L13.8395213,30.6513348 L16.5505043,30.6513348 L16.5505043,38.8268491 L11.1267549,38.8268491 L11.1267549,25.2016436 L13.8395213,25.2016436 L13.8395213,27.9266521 L13.8395213,27.9266521 Z M21.9750644,30.6513348 L24.686696,30.6513348 L24.686696,27.9266521 L21.9750644,27.9266521 L21.9750644,30.6513348 Z M30.111256,19.7530928 L27.3984896,19.7530928 L27.3984896,17.0284101 L16.5505043,17.0284101 L16.5505043,19.7530928 L8.41496126,19.7530928 L8.41496126,17.0284101 L5.70219483,17.0284101 L5.70219483,19.7530928 L2.99040117,19.7530928 L2.99040117,22.476798 L0.278931783,22.476798 L0.278931783,41.5515318 L2.99040117,41.5515318 L2.99040117,47.0023634 L5.70219483,47.0023634 L5.70219483,49.7283493 L27.3984896,49.7283493 L27.3984896,47.0023634 L30.111256,47.0023634 L30.111256,30.6513348 L32.8230497,30.6513348 L32.8230497,22.476798 L30.111256,22.476798 L30.111256,19.7530928 L30.111256,19.7530928 Z"/><polygon id="Fill-37" fill="#EB9177" points="8.415 44.278 13.84 44.278 13.84 41.552 8.415 41.552"/><polygon id="Fill-38" fill="#1A1918" points="21.975 30.651 24.687 30.651 24.687 27.927 21.975 27.927"/><polygon id="Fill-39" fill="#1A1918" points="2.99 30.651 5.702 30.651 5.702 27.927 2.99 27.927"/></g></g></g></g></g></svg>