<svg xmlns="http://www.w3.org/2000/svg" xmlns:xlink="http://www.w3.org/1999/xlink" width="64" height="64" version="1.1" viewBox="0 0 64 64"><title>avatar4</title><desc>Created with Sketch.</desc><g id="Page-1" fill="none" fill-rule="evenodd" stroke="none" stroke-width="1"><g id="dfasd" transform="translate(-5048.000000, -3725.000000)"><g id="Group-16" transform="translate(5064.000000, 3738.000000)"><polygon id="Fill-95" fill="#DB8E36" points="30.111 22.175 32.824 22.175 32.824 16.751 30.111 16.751"/><polyline id="Fill-96" fill="#DB8E36" points="19.263 35.737 16.552 35.737 16.552 38.448 24.686 38.448 24.686 35.737 19.263 35.737"/><polyline id="Fill-97" fill="#DB8E36" points="16.552 19.463 16.552 11.327 11.127 11.327 11.127 22.175 16.552 22.175 16.552 19.463"/><polygon id="Fill-98" fill="#DB8E36" points="8.415 38.448 11.127 38.448 11.127 35.737 8.415 35.737"/><polygon id="Fill-99" fill="#DE4447" points="11.127 33.023 16.552 33.023 16.552 30.311 11.127 30.311"/><polyline id="Fill-100" fill="#343433" points="30.111 8.616 30.111 3.193 27.399 3.193 27.399 .479 2.99 .479 2.99 3.193 .278 3.193 .278 8.616 2.99 8.616 2.99 11.327 21.974 11.327 21.974 8.616 24.686 8.616 24.686 11.327 27.399 11.327 27.399 14.04 30.111 14.04 30.111 16.751 32.824 16.751 32.824 8.616 30.111 8.616"/><polygon id="Fill-101" fill="#343433" points="21.974 27.599 24.686 27.599 24.686 24.888 21.974 24.888"/><polygon id="Fill-102" fill="#343433" points="19.263 30.311 21.974 30.311 21.974 27.599 19.263 27.599"/><polyline id="Fill-103" fill="#343433" points="16.552 24.888 8.415 24.888 8.415 27.599 19.263 27.599 19.263 24.888 16.552 24.888"/><polygon id="Fill-104" fill="#343433" points="11.127 38.448 16.552 38.448 16.552 35.737 11.127 35.737"/><polygon id="Fill-105" fill="#343433" points="5.703 30.311 8.415 30.311 8.415 27.599 5.703 27.599"/><polygon id="Fill-106" fill="#343433" points="2.99 27.599 5.703 27.599 5.703 24.888 2.99 24.888"/><polygon id="Fill-107" fill="#1A1918" points="21.974 19.463 24.686 19.463 24.686 16.751 21.974 16.751"/><polygon id="Fill-108" fill="#1A1918" points="2.99 19.463 5.703 19.463 5.703 16.751 2.99 16.751"/><path id="Fill-109" fill="#ED9839" d="M21.9744159,19.4631833 L24.6863717,19.4631833 L24.6863717,16.7512276 L21.9744159,16.7512276 L21.9744159,19.4631833 Z M11.1274034,33.0229623 L16.5521257,33.0229623 L16.5521257,30.3113307 L11.1274034,30.3113307 L11.1274034,33.0229623 Z M2.99007691,19.4631833 L5.70284335,19.4631833 L5.70284335,16.7512276 L2.99007691,16.7512276 L2.99007691,19.4631833 Z M30.1110939,22.1748149 L30.1110939,14.039596 L27.3991381,14.039596 L27.3991381,11.3266675 L24.6863717,11.3266675 L24.6863717,8.61600874 L21.9744159,8.61600874 L21.9744159,11.3266675 L16.5521257,11.3266675 L16.5521257,22.1748149 L11.1274034,22.1748149 L11.1274034,11.3266675 L2.99007691,11.3266675 L2.99007691,8.61600874 L0.278283261,8.61600874 L0.278283261,27.599375 L2.99007691,27.599375 L2.99007691,24.8877434 L5.70284335,24.8877434 L5.70284335,27.599375 L8.414637,27.599375 L8.414637,24.8877434 L19.2626223,24.8877434 L19.2626223,27.599375 L21.9744159,27.599375 L21.9744159,24.8877434 L24.6863717,24.8877434 L24.6863717,27.599375 L21.9744159,27.599375 L21.9744159,30.3113307 L19.2626223,30.3113307 L19.2626223,27.599375 L8.414637,27.599375 L8.414637,30.3113307 L5.70284335,30.3113307 L5.70284335,27.599375 L2.99007691,27.599375 L2.99007691,33.0229623 L5.70284335,33.0229623 L5.70284335,35.7370257 L27.3991381,35.7370257 L27.3991381,33.0229623 L30.1110939,33.0229623 L30.1110939,27.599375 L32.8236982,27.599375 L32.8236982,22.1748149 L30.1110939,22.1748149 L30.1110939,22.1748149 Z"/></g></g></g></svg>