<svg xmlns="http://www.w3.org/2000/svg" xmlns:xlink="http://www.w3.org/1999/xlink" width="64" height="64" version="1.1" viewBox="0 0 64 64"><title>avatar2</title><desc>Created with Sketch.</desc><g id="Page-1" fill="none" fill-rule="evenodd" stroke="none" stroke-width="1"><g id="dfasd" transform="translate(-5133.000000, -3635.000000)"><g id="Group-14" transform="translate(5148.000000, 3647.000000)"><polyline id="Fill-110" fill="#DE4447" points="21.712 27.801 8.152 27.801 8.152 30.513 24.424 30.513 24.424 27.801 21.712 27.801"/><polygon id="Fill-111" fill="#E0C88E" points="29.848 19.665 32.561 19.665 32.561 11.53 29.848 11.53"/><polyline id="Fill-112" fill="#E0C88E" points="19 35.937 8.152 35.937 8.152 38.65 24.424 38.65 24.424 35.937 19 35.937"/><polyline id="Fill-113" fill="#E0C88E" points="13.575 14.241 13.575 25.089 16.289 25.089 16.289 11.53 13.575 11.53 13.575 14.241"/><path id="Fill-114" fill="#F1D798" d="M18.9998863,33.226809 L18.9998863,30.5129077 L13.5753262,30.5129077 L13.5753262,33.226809 L10.8646675,33.226809 L10.8646675,30.5129077 L8.15206317,30.5129077 L8.15206317,27.8012761 L24.4237979,27.8012761 L24.4237979,30.5129077 L21.7118421,30.5129077 L21.7118421,33.226809 L18.9998863,33.226809 L18.9998863,33.226809 Z M2.72734096,16.9529666 L5.44010739,16.9529666 L5.44010739,14.241173 L2.72734096,14.241173 L2.72734096,16.9529666 Z M24.4237979,16.9529666 L27.1364022,16.9529666 L27.1364022,14.241173 L24.4237979,14.241173 L24.4237979,16.9529666 Z M29.848358,19.6647603 L29.848358,11.5295414 L16.2893897,11.5295414 L16.2893897,25.0893203 L13.5753262,25.0893203 L13.5753262,11.5295414 L0.0155473043,11.5295414 L0.0155473043,27.8012761 L2.72734096,27.8012761 L2.72734096,33.226809 L5.44010739,33.226809 L5.44010739,35.9374677 L27.1364022,35.9374677 L27.1364022,33.226809 L29.848358,33.226809 L29.848358,27.8012761 L32.5609623,27.8012761 L32.5609623,19.6647603 L29.848358,19.6647603 L29.848358,19.6647603 Z"/><polyline id="Fill-115" fill="#1A1918" points="29.848 6.105 29.848 .681 27.136 .681 27.136 3.393 5.44 3.393 5.44 .681 2.727 .681 2.727 6.105 .016 6.105 .016 11.53 32.561 11.53 32.561 6.105 29.848 6.105"/><polygon id="Fill-116" fill="#1A1918" points="24.424 16.953 27.136 16.953 27.136 14.241 24.424 14.241"/><polygon id="Fill-117" fill="#1A1918" points="2.727 16.953 5.44 16.953 5.44 14.241 2.727 14.241"/><polygon id="Fill-118" fill="#FFF" points="19 33.227 21.712 33.227 21.712 30.513 19 30.513"/><polygon id="Fill-119" fill="#FFF" points="10.865 33.227 13.575 33.227 13.575 30.513 10.865 30.513"/></g></g></g></svg>