<svg xmlns="http://www.w3.org/2000/svg" xmlns:xlink="http://www.w3.org/1999/xlink" width="64" height="64" version="1.1" viewBox="0 0 64 64"><title>avatar23</title><desc>Created with Sketch.</desc><g id="Page-1" fill="none" fill-rule="evenodd" stroke="none" stroke-width="1"><g id="dfasd" transform="translate(-5744.000000, -3805.000000)"><g id="Group-34" transform="translate(5757.000000, 3819.000000)"><polygon id="Fill-109" fill="#5EC3E1" points="30 15 32 15 32 8 30 8"/><polyline id="Fill-110" fill="#BF665D" points="17.501 25 15 25 15 27 20 27 20 25 17.501 25"/><polyline id="Fill-111" fill="#ED9839" points="39.5 12.501 39.5 10 32 10 32 20.001 37.001 20.001 37.001 22.501 39.5 22.501 39.5 25 42 25 42 12.501 39.5 12.501"/><polyline id="Fill-112" fill="#ED9839" points="27.501 2.499 25.001 2.499 25.001 0 5.001 0 5.001 2.499 2.5 2.499 2.5 5 0 5 0 12.5 25.001 12.5 25.001 15 27.501 15 27.501 20 30 20 30 5 27.501 5 27.501 2.499"/><polygon id="Fill-113" fill="#ECC982" points="27 27 29 27 29 20 27 20"/><polyline id="Fill-114" fill="#ECC982" points="17 35 7 35 7 37 22 37 22 35 17 35"/><polyline id="Fill-115" fill="#ECC982" points="12 20.5 12 13 10 13 10 23 12 23 12 20.5"/><polygon id="Fill-116" fill="#1A1918" points="20 17 22 17 22 15 20 15"/><polygon id="Fill-117" fill="#1A1918" points="2 17 4 17 4 15 2 15"/><path id="Fill-118" fill="#FBD589" d="M19.6355633,17.8877035 L22.0918428,17.8877035 L22.0918428,15.444071 L19.6355633,15.444071 L19.6355633,17.8877035 Z M14.7274061,27.6658872 L19.6355633,27.6658872 L19.6355633,25.2213778 L14.7274061,25.2213778 L14.7274061,27.6658872 Z M2.45481224,17.8877035 L4.90962448,17.8877035 L4.90962448,15.444071 L2.45481224,15.444071 L2.45481224,17.8877035 Z M24.5451878,15.444071 L24.5451878,13 L12.2740612,13 L12.2740612,22.7781837 L9.81778164,22.7781837 L9.81778164,13 L0,13 L0,27.6658872 L2.45481224,27.6658872 L2.45481224,32.5554906 L4.90962448,32.5554906 L4.90962448,35 L24.5451878,35 L24.5451878,32.5554906 L27,32.5554906 L27,15.444071 L24.5451878,15.444071 L24.5451878,15.444071 Z"/></g></g></g></svg>