<svg xmlns="http://www.w3.org/2000/svg" xmlns:xlink="http://www.w3.org/1999/xlink" width="64" height="64" version="1.1" viewBox="0 0 64 64"><title>avatar19</title><desc>Created with Sketch.</desc><g id="Page-1" fill="none" fill-rule="evenodd" stroke="none" stroke-width="1"><g id="dfasd" transform="translate(-5565.000000, -3805.000000)"><g id="Group-30" transform="translate(5580.000000, 3805.000000)"><polygon id="Fill-127" fill="#AADAE1" points="27 37 29 37 29 35 27 35"/><polygon id="Fill-128" fill="#AADAE1" points="22 35 27 35 27 33 22 33"/><polygon id="Fill-129" fill="#AADAE1" points="15 35 17 35 17 33 15 33"/><polyline id="Fill-130" fill="#E8819D" points="17.5 13 15 13 15 15 20 15 20 13 17.5 13"/><polygon id="Fill-131" fill="#EB9177" points="13 47 18 47 18 45 13 45"/><polygon id="Fill-132" fill="#AADAE1" points="10 35 15 35 15 33 10 33"/><polyline id="Fill-133" fill="#ECC982" points="27 40.5 27 43 29 43 29 38 27 38 27 40.5"/><polyline id="Fill-134" fill="#ECC982" points="15 42 15 39.668 12.5 39.668 12.5 35 10 35 10 42 15 42"/><polyline id="Fill-135" fill="#ECC982" points="13 52 23 52 23 50 8 50 8 52 13 52"/><polygon id="Fill-136" fill="#ECC982" points="10 32 12 32 12 30 10 30"/><polygon id="Fill-137" fill="#AADAE1" points="8 35 10 35 10 33 8 33"/><polygon id="Fill-138" fill="#EAEAE9" points="20 35 22 35 22 33 20 33"/><polygon id="Fill-139" fill="#EAEAE9" points="18 37 20 37 20 35 18 35"/><polygon id="Fill-140" fill="#EAEAE9" points="5 35 7 35 7 33 5 33"/><polygon id="Fill-141" fill="#EAEAE9" points="3 37 5 37 5 35 3 35"/><polygon id="Fill-142" fill="#FFF" points="20 37 22 37 22 35 20 35"/><polygon id="Fill-143" fill="#FFF" points="18 35 20 35 20 33 18 33"/><polygon id="Fill-144" fill="#FFF" points="5 37 7 37 7 35 5 35"/><polygon id="Fill-145" fill="#FFF" points="3 35 5 35 5 33 3 33"/><polygon id="Fill-146" fill="#AADAE1" points="0 35 2 35 2 33 0 33"/><polyline id="Fill-147" fill="#FBD589" points="17.8 32 25 32 25 30 13 30 13 32 17.8 32"/><path id="Fill-148" fill="#FBD589" d="M12.2733542,47.4998506 L17.1819916,47.4998506 L17.1819916,44.9997011 L12.2733542,44.9997011 L12.2733542,47.4998506 Z M2.4551991,44.9997011 L2.4551991,47.4998506 L4.90951778,47.4998506 L4.90951778,50 L24.5458281,50 L24.5458281,47.4998506 L27,47.4998506 L27,35 L22.0915094,35 L22.0915094,37.5022416 L17.1819916,37.5022416 L17.1819916,35 L12.2733542,35 L12.2733542,40.0008966 L14.7278197,40.0008966 L14.7278197,42.4995517 L9.81815514,42.4995517 L9.81815514,35 L7.36368972,35 L7.36368972,37.5022416 L2.4551991,37.5022416 L2.4551991,35 L0,35 L0,42.4995517 L2.4551991,42.4995517 L2.4551991,44.9997011 L2.4551991,44.9997011 Z"/><polyline id="Fill-149" fill="#FBD589" points="5 32 10 32 10 30 0 30 0 32 5 32"/><polyline id="Fill-150" fill="#905F2C" points="27.571 2.399 27.571 0 20.285 0 20.285 2.399 15.429 2.399 15.429 4.799 13 4.799 13 9.601 15.429 9.601 15.429 12 22.715 12 22.715 9.601 25.143 9.601 25.143 4.799 30 4.799 30 2.399 27.571 2.399"/><polyline id="Fill-151" fill="#905F2C" points="27.5 20.001 27.5 17.501 22.501 17.501 22.501 15 7.5 15 7.5 17.501 2.501 17.501 2.501 22.5 0 22.5 0 30.002 25 30.002 25 32.5 27.5 32.5 27.5 35 30 35 30 22.5 27.5 22.5 27.5 20.001"/></g></g></g></svg>