<svg xmlns="http://www.w3.org/2000/svg" xmlns:xlink="http://www.w3.org/1999/xlink" width="64" height="64" version="1.1" viewBox="0 0 64 64"><title>avatar20</title><desc>Created with Sketch.</desc><g id="Page-1" fill="none" fill-rule="evenodd" stroke="none" stroke-width="1"><g id="dfasd" transform="translate(-5565.000000, -3886.000000)"><g id="Group-31" transform="translate(5578.000000, 3898.000000)"><polyline id="Fill-152" fill="#E1BD62" points="24.5 38 12 38 12 40 27 40 27 38 24.5 38"/><polygon id="Fill-153" fill="#E1BD62" points="15 25 20 25 20 15 15 15"/><polyline id="Fill-154" fill="#F2AB63" points="29.5 23 29.5 25.499 27 25.499 27 30.498 29.5 30.498 29.5 33 32 33 32 23 29.5 23"/><polyline id="Fill-155" fill="#F2AB63" points="7.5 23 5 23 5 30 10 30 10 25.333 7.5 25.333 7.5 23"/><polyline id="Fill-156" fill="#FDEE8D" points="36.534 22.502 36.534 20 34.067 20 34.067 15.001 36.534 15.001 36.534 10 34.067 10 34.067 7.5 31.6 7.5 31.6 5.001 29.133 5.001 29.133 7.5 26.667 7.5 26.667 2.5 24.201 2.5 24.201 0 16.8 0 16.8 5.001 14.334 5.001 14.334 2.5 11.867 2.5 11.867 0 4.467 0 4.467 2.5 2 2.5 2 10 4.467 10 4.467 15.001 29.133 15.001 29.133 17.5 31.6 17.5 31.6 35.001 29.133 35.001 29.133 37.501 26.667 37.501 26.667 40 34.067 40 34.067 35.001 36.534 35.001 36.534 32.502 34.067 32.502 34.067 30 36.534 30 36.534 27.501 39 27.501 39 22.502 36.534 22.502"/><polyline id="Fill-157" fill="#FDEE8D" points="9.5 35.333 7 35.333 7 33 4.501 33 4.501 35.333 2 35.333 2 37.667 4.501 37.667 4.501 40 12 40 12 37.667 9.5 37.667 9.5 35.333"/><polyline id="Fill-158" fill="#FDEE8D" points="2.5 28 5 28 5 18 2.5 18 2.5 20.5 0 20.5 0 25.5 2.5 25.5 2.5 28"/><polygon id="Fill-159" fill="#DE4447" points="15 32 20 32 20 30 15 30"/><polygon id="Fill-160" fill="#1A1918" points="25 20 27 20 27 18 25 18"/><polygon id="Fill-161" fill="#1A1918" points="7 20 9 20 9 18 7 18"/><path id="Fill-162" fill="#FCD36B" d="M7.45438537,19.8880771 L9.90877075,19.8880771 L9.90877075,17.4433079 L7.45438537,17.4433079 L7.45438537,19.8880771 Z M14.8184219,32.1119229 L19.7270459,32.1119229 L19.7270459,29.6656925 L14.8184219,29.6656925 L14.8184219,32.1119229 Z M24.6368439,19.8880771 L27.0912293,19.8880771 L27.0912293,17.4433079 L24.6368439,17.4433079 L24.6368439,19.8880771 Z M29.5454679,17.4433079 L29.5454679,15 L19.7270459,15 L19.7270459,24.7776154 L14.8184219,24.7776154 L14.8184219,15 L5,15 L5,22.3343075 L7.45438537,22.3343075 L7.45438537,24.7776154 L9.90877075,24.7776154 L9.90877075,29.6656925 L7.45438537,29.6656925 L7.45438537,34.5552308 L9.90877075,34.5552308 L9.90877075,37 L29.5454679,37 L29.5454679,34.5552308 L32,34.5552308 L32,32.1119229 L29.5454679,32.1119229 L29.5454679,29.6656925 L27.0912293,29.6656925 L27.0912293,24.7776154 L29.5454679,24.7776154 L29.5454679,22.3343075 L32,22.3343075 L32,17.4433079 L29.5454679,17.4433079 L29.5454679,17.4433079 Z"/></g></g></g></svg>