<svg xmlns="http://www.w3.org/2000/svg" xmlns:xlink="http://www.w3.org/1999/xlink" width="64" height="64" version="1.1" viewBox="0 0 64 64"><title>avatar11</title><desc>Created with Sketch.</desc><g id="Page-1" fill="none" fill-rule="evenodd" stroke="none" stroke-width="1"><g id="dfasd" transform="translate(-5133.000000, -3886.000000)"><g id="Group-24" transform="translate(5148.000000, 3898.000000)"><polyline id="Fill-48" fill="#E0C88E" points="32 26.501 32 29 35 29 35 24 32 24 32 26.501"/><polyline id="Fill-49" fill="#E0C88E" points="20.668 38 10 38 10 41 26 41 26 38 20.668 38"/><polygon id="Fill-50" fill="#E0C88E" points="13 27 18 27 18 13 13 13"/><polyline id="Fill-51" fill="#4C4843" points="32.308 7.999 32.308 5.334 29.615 5.334 29.615 2.667 10.769 2.667 10.769 0 2.691 0 2.691 2.667 0 2.667 0 10.666 2.691 10.666 2.691 13.334 26.922 13.334 26.922 16.001 29.615 16.001 29.615 18.666 32.308 18.666 32.308 24 35 24 35 7.999 32.308 7.999"/><path id="Fill-52" fill="#F1D798" d="M23.8181225,20.9994686 L26.5449802,20.9994686 L26.5449802,18.3324477 L23.8181225,18.3324477 L23.8181225,20.9994686 Z M29.272164,31.6659582 L26.5449802,31.6659582 L26.5449802,34.3329791 L21.09208,34.3329791 L21.09208,31.6659582 L26.5449802,31.6659582 L26.5449802,28.9989372 L29.272164,28.9989372 L29.272164,31.6659582 L29.272164,31.6659582 Z M4.72702076,20.9994686 L7.45404151,20.9994686 L7.45404151,18.3324477 L4.72702076,18.3324477 L4.72702076,20.9994686 Z M29.272164,15.6670209 L26.5449802,15.6670209 L26.5449802,13 L18.3631028,13 L18.3631028,26.3335105 L12.9090613,26.3335105 L12.9090613,13 L2,13 L2,28.9989372 L4.72702076,28.9989372 L4.72702076,34.3329791 L7.45404151,34.3329791 L7.45404151,37 L29.272164,37 L29.272164,34.3329791 L32,34.3329791 L32,18.3324477 L29.272164,18.3324477 L29.272164,15.6670209 L29.272164,15.6670209 Z"/><polygon id="Fill-53" fill="#EB9177" points="27 32 30 32 30 29 27 29"/><polygon id="Fill-54" fill="#EB9177" points="21 35 26 35 26 32 21 32"/><polygon id="Fill-55" fill="#1A1918" points="24 22 27 22 27 19 24 19"/><polygon id="Fill-56" fill="#1A1918" points="5 22 8 22 8 19 5 19"/></g></g></g></svg>