<svg xmlns="http://www.w3.org/2000/svg" xmlns:xlink="http://www.w3.org/1999/xlink" width="64" height="64" version="1.1" viewBox="0 0 64 64"><title>avatar22</title><desc>Created with Sketch.</desc><g id="Page-1" fill="none" fill-rule="evenodd" stroke="none" stroke-width="1"><g id="dfasd" transform="translate(-5742.000000, -3886.000000)"><g id="Group-33" transform="translate(5758.000000, 3900.000000)"><polygon id="Fill-30" fill="#8A6651" points="26.667 18.133 28.8 18.133 28.8 16 26.667 16"/><polygon id="Fill-31" fill="#8A6651" points="10.667 18.133 16 18.133 16 10.667 10.667 10.667"/><path id="Fill-32" fill="#9C745C" d="M18.6670652,15.644742 L21.3341304,15.644742 L21.3341304,13.1571922 L18.6670652,13.1571922 L18.6670652,15.644742 Z M24.0011956,13.1571922 L24.0011956,10.6666667 L16,10.6666667 L16,18.1333333 L26.6666667,18.1333333 L26.6666667,13.1571922 L24.0011956,13.1571922 L24.0011956,13.1571922 Z"/><path id="Fill-33" fill="#9C745C" d="M4.62123024,15.644742 L7.11061512,15.644742 L7.11061512,13.1571922 L4.62123024,13.1571922 L4.62123024,15.644742 Z M4.62123024,10.6666667 L2.13333333,10.6666667 L2.13333333,18.1333333 L9.6,18.1333333 L9.6,10.6666667 L4.62123024,10.6666667 L4.62123024,10.6666667 Z"/><polygon id="Fill-34" fill="#272626" points="28.8 18.133 30.933 18.133 30.933 16 28.8 16"/><polyline id="Fill-35" fill="#272626" points="15.146 24.533 7.467 24.533 7.467 27.199 10.027 27.199 10.027 29.867 20.267 29.867 20.267 24.533 15.146 24.533"/><polyline id="Fill-36" fill="#272626" points="0 16.533 0 19.2 2.133 19.2 2.133 13.867 0 13.867 0 16.533"/><path id="Fill-37" fill="#1A1918" d="M21.3333333,26.9713843 L21.3333333,29.5627233 L10.6666667,29.5627233 L10.6666667,26.9713843 L7.99960145,26.9713843 L7.99960145,24.3811294 L21.3333333,24.3811294 L21.3333333,26.9713843 L21.3333333,26.9713843 Z M26.6658696,19.2 L0,19.2 L0,29.5627233 L2.66706521,29.5627233 L2.66706521,37.3333333 L32,37.3333333 L32,32.1518943 L29.3329348,32.1518943 L29.3329348,26.9713843 L32,26.9713843 L32,19.2 L26.6658696,19.2 L26.6658696,19.2 Z"/><polyline id="Fill-38" fill="#1A1918" points="29.333 2.667 26.666 2.667 26.666 0 5.333 0 5.333 2.667 2.667 2.667 2.667 5.334 0 5.334 0 13.335 2.667 13.335 2.667 10.666 24 10.666 24 13.335 26.666 13.335 26.666 16 32 16 32 5.334 29.333 5.334 29.333 2.667"/><polygon id="Fill-39" fill="#1A1918" points="18.133 16 20.267 16 20.267 13.867 18.133 13.867"/><polygon id="Fill-40" fill="#1A1918" points="5.333 16 7.467 16 7.467 13.867 5.333 13.867"/></g></g></g></svg>