<svg xmlns="http://www.w3.org/2000/svg" xmlns:xlink="http://www.w3.org/1999/xlink" width="64" height="64" version="1.1" viewBox="0 0 64 64"><title>avatar12</title><desc>Created with Sketch.</desc><g id="Page-1" fill="none" fill-rule="evenodd" stroke="none" stroke-width="1"><g id="dfasd" transform="translate(-5218.000000, -3886.000000)"><g id="Group-23" transform="translate(5233.000000, 3896.000000)"><polygon id="Fill-5" fill="#BF665D" points="16 36 19 36 19 33 16 33"/><polygon id="Fill-6" fill="#ECC982" points="30 20 33 20 33 17 30 17"/><polygon id="Fill-7" fill="#ECC982" points="11 25 16 25 16 11 11 11"/><polygon id="Fill-8" fill="#1A1918" points="21 20 24 20 24 17 21 17"/><polygon id="Fill-9" fill="#1A1918" points="2 20 5 20 5 17 2 17"/><path id="Fill-10" fill="#ED9839" d="M22.0008768,32.5016141 L22.0008768,35.2003228 L10.999452,35.2003228 L10.999452,29.8012912 L22.0008768,29.8012912 L22.0008768,32.5016141 L22.0008768,32.5016141 Z M30.2494794,21.7003228 L30.2494794,24.4006456 L24.7494246,24.4006456 L24.7494246,27.1009684 L2.74871215,27.1009684 L2.74871215,21.7003228 L0,21.7003228 L0,35.2003228 L2.74871215,35.2003228 L2.74871215,40.5993544 L5.49857514,40.5993544 L5.49857514,43.2996772 L8.24843814,43.2996772 L8.24843814,46 L24.7494246,46 L24.7494246,43.2996772 L27.499452,43.2996772 L27.499452,40.5993544 L30.2494794,40.5993544 L30.2494794,35.2003228 L33,35.2003228 L33,19 L30.2494794,19 L30.2494794,21.7003228 L30.2494794,21.7003228 Z"/><polyline id="Fill-11" fill="#ED9839" points="30.249 2.667 24.749 2.667 24.749 0 5.499 0 5.499 2.667 2.749 2.667 2.749 5.332 0 5.332 0 13.331 2.749 13.331 2.749 10.665 27.499 10.665 27.499 13.331 30.249 13.331 30.249 16 33 16 33 5.332 30.249 5.332 30.249 2.667"/><path id="Fill-12" fill="#FBD589" d="M21.8194269,18.9992029 L24.5453063,18.9992029 L24.5453063,16.3354588 L21.8194269,16.3354588 L21.8194269,18.9992029 Z M2.72604244,18.9992029 L5.45322623,18.9992029 L5.45322623,16.3354588 L2.72604244,16.3354588 L2.72604244,18.9992029 Z M27.2726532,11 L16.364081,11 L16.364081,24.3330676 L10.9087352,24.3330676 L10.9087352,11 L2.72604244,11 L2.72604244,13.6669324 L0,13.6669324 L0,21.6661353 L2.72604244,21.6661353 L2.72604244,27 L24.5453063,27 L24.5453063,24.3330676 L30,24.3330676 L30,13.6669324 L27.2726532,13.6669324 L27.2726532,11 L27.2726532,11 Z"/><polyline id="Fill-13" fill="#FBD589" points="16.5 30 11 30 11 35 16.5 35 16.5 32.501 19.248 32.501 19.248 35 22 35 22 30 16.5 30"/></g></g></g></svg>