<svg xmlns="http://www.w3.org/2000/svg" xmlns:xlink="http://www.w3.org/1999/xlink" width="64" height="64" version="1.1" viewBox="0 0 64 64"><title>avatar10</title><desc>Created with Sketch.</desc><g id="Page-1" fill="none" fill-rule="evenodd" stroke="none" stroke-width="1"><g id="dfasd" transform="translate(-5048.000000, -3886.000000)"><g id="Group-25" transform="translate(5064.000000, 3894.000000)"><polygon id="Fill-120" fill="#DB3B35" points="11 22 14 22 14 19 11 19"/><polygon id="Fill-121" fill="#A86F29" points="30 32 33 32 33 27 30 27"/><polyline id="Fill-122" fill="#A86F29" points="18.666 44 8 44 8 47 24 47 24 44 18.666 44"/><polyline id="Fill-123" fill="#A86F29" points="14 30.25 14 22 11 22 11 33 14 33 14 30.25"/><polygon id="Fill-124" fill="#A86F29" points="11 19 14 19 14 16 11 16"/><path id="Fill-125" fill="#B6782C" d="M19.250274,26.7987087 L22.0000548,26.7987087 L22.0000548,24.0982244 L19.250274,24.0982244 L19.250274,26.7987087 Z M8.25131521,37.6006457 L16.5003288,37.6006457 L16.5003288,34.8985473 L8.25131521,34.8985473 L8.25131521,37.6006457 Z M2.75076721,26.7987087 L5.50054801,26.7987087 L5.50054801,24.0982244 L2.75076721,24.0982244 L2.75076721,26.7987087 Z M30.25137,32.1996772 L30.25137,24.0982244 L27.5007672,24.0982244 L27.5007672,21.3993543 L24.750822,21.3993543 L24.750822,18.6988701 L22.0000548,18.6988701 L22.0000548,16 L13.7518632,16 L13.7518632,32.1996772 L10.9997808,32.1996772 L10.9997808,16 L5.50054801,16 L5.50054801,18.6988701 L2.75076721,18.6988701 L2.75076721,21.3993543 L0,21.3993543 L0,34.8985473 L2.75076721,34.8985473 L2.75076721,40.2995158 L5.50054801,40.2995158 L5.50054801,43 L27.5007672,43 L27.5007672,40.2995158 L30.25137,40.2995158 L30.25137,34.8985473 L33,34.8985473 L33,32.1996772 L30.25137,32.1996772 L30.25137,32.1996772 Z"/><polygon id="Fill-126" fill="#E7E7E6" points="30 25 33 25 33 22 30 22"/><polyline id="Fill-127" fill="#E7E7E6" points="30.251 14.248 30.251 11.499 19.25 11.499 19.25 8.749 11 8.749 11 6 2.751 6 2.751 8.749 8.251 8.749 8.251 11.499 16.5 11.499 16.5 14.248 0 14.248 0 17 19.25 17 19.25 14.248 27.501 14.248 27.501 17 33 17 33 14.248 30.251 14.248"/><polyline id="Fill-128" fill="#E7E7E6" points="16.6 5 19.4 5 19.4 2.499 25 2.499 25 0 16.6 0 16.6 2.499 11 2.499 11 5 16.6 5"/><polyline id="Fill-129" fill="#EB9177" points="10.665 35 8 35 8 38 16 38 16 35 10.665 35"/><polygon id="Fill-130" fill="#1A1918" points="19 28 22 28 22 25 19 25"/><polygon id="Fill-131" fill="#1A1918" points="3 28 6 28 6 25 3 25"/><polygon id="Fill-132" fill="#FFF" points="30 28 33 28 33 25 30 25"/><polyline id="Fill-133" fill="#FFF" points="27.401 16.752 27.401 14 19 14 19 16.752 21.8 16.752 21.8 19.501 24.601 19.501 24.601 22.251 27.401 22.251 27.401 25 30.201 25 30.201 22.251 33 22.251 33 16.752 27.401 16.752"/><polyline id="Fill-134" fill="#FFF" points="30.251 3 19.25 3 19.25 5.752 11 5.752 11 8.501 19.25 8.501 19.25 11.251 30.251 11.251 30.251 14 33 14 33 5.752 30.251 5.752 30.251 3"/><polyline id="Fill-135" fill="#FFF" points="14.201 2.499 17 2.499 17 0 5.8 0 5.8 2.499 3 2.499 3 5 11.399 5 11.399 2.499 14.201 2.499"/><polyline id="Fill-136" fill="#FFF" points="0 16 0 21 2.5 21 2.5 18.499 5 18.499 5 16 0 16"/><polyline id="Fill-137" fill="#FFF" points="0 8.666 0 14 16 14 16 11.334 8.001 11.334 8.001 8.666 2.667 8.666 2.667 6 0 6 0 8.666"/></g></g></g></svg>