<svg xmlns="http://www.w3.org/2000/svg" xmlns:xlink="http://www.w3.org/1999/xlink" width="64" height="64" version="1.1" viewBox="0 0 64 64"><title>avatar3</title><desc>Created with Sketch.</desc><g id="Page-1" fill="none" fill-rule="evenodd" stroke="none" stroke-width="1"><g id="dfasd" transform="translate(-5217.000000, -3635.000000)"><g id="Group-39" transform="translate(5217.000000, 3635.000000)"><g id="Group-15" transform="translate(16.000000, -3.000000)"><polyline id="Fill-57" fill="#DA2E2F" points="16.401 11.502 13.689 11.502 13.689 14.213 19.112 14.213 19.112 11.502 16.401 11.502"/><polygon id="Fill-58" fill="#E4C361" points="29.96 38.621 32.673 38.621 32.673 33.197 29.96 33.197"/><polygon id="Fill-59" fill="#E4C361" points="21.826 52.183 24.537 52.183 24.537 49.469 21.826 49.469"/><polyline id="Fill-60" fill="#E4C361" points="13.689 49.469 10.977 49.469 10.977 52.183 19.112 52.183 19.112 49.469 13.689 49.469"/><polygon id="Fill-61" fill="#E4C361" points="10.977 38.621 16.401 38.621 16.401 25.061 10.977 25.061"/><path id="Fill-62" fill="#FBD568" d="M19.1121939,33.1973931 L24.5369161,33.1973931 L24.5369161,30.4857616 L19.1121939,30.4857616 L19.1121939,33.1973931 Z M2.84062135,33.1973931 L8.26388439,33.1973931 L8.26388439,30.4857616 L2.84062135,30.4857616 L2.84062135,33.1973931 Z M29.9603413,38.6209804 L29.9603413,30.4857616 L27.2483855,30.4857616 L27.2483855,27.772833 L24.5369161,27.772833 L24.5369161,25.0612015 L16.401373,25.0612015 L16.401373,38.6209804 L10.976813,38.6209804 L10.976813,25.0612015 L0.129638348,25.0612015 L0.129638348,41.3348817 L2.84062135,41.3348817 L2.84062135,46.7573341 L5.55209074,46.7573341 L5.55209074,49.4691278 L8.26388439,49.4691278 L8.26388439,41.3348817 L21.8259331,41.3348817 L21.8259331,49.4691278 L27.2483855,49.4691278 L27.2483855,46.7573341 L29.9603413,46.7573341 L29.9603413,41.3348817 L32.6727835,41.3348817 L32.6727835,38.6209804 L29.9603413,38.6209804 L29.9603413,38.6209804 Z"/><polyline id="Fill-63" fill="#FBD568" points="13.689 46.757 10.977 46.757 10.977 49.469 19.112 49.469 19.112 46.757 13.689 46.757"/><polyline id="Fill-64" fill="#9C9D9C" points="29.96 19.639 29.96 16.925 27.248 16.925 27.248 14.213 5.552 14.213 5.552 16.925 2.841 16.925 2.841 19.639 .13 19.639 .13 25.061 24.537 25.061 24.537 27.773 27.248 27.773 27.248 30.486 29.96 30.486 29.96 33.197 32.673 33.197 32.673 19.639 29.96 19.639"/><polyline id="Fill-65" fill="#9C9D9C" points="16.401 41.335 8.264 41.335 8.264 54.895 10.977 54.895 10.977 44.047 19.112 44.047 19.112 54.895 21.826 54.895 21.826 41.335 16.401 41.335"/><polyline id="Fill-66" fill="#9C9D9C" points="16.401 11.502 21.826 11.502 21.826 6.077 19.112 6.077 19.112 .654 16.401 .654 16.401 3.365 13.689 3.365 13.689 6.077 10.977 6.077 10.977 11.502 16.401 11.502"/><polyline id="Fill-67" fill="#EB9177" points="16.401 44.047 10.977 44.047 10.977 46.757 19.112 46.757 19.112 44.047 16.401 44.047"/><polygon id="Fill-68" fill="#1A1918" points="19.112 33.197 24.537 33.197 24.537 30.486 19.112 30.486"/><polygon id="Fill-69" fill="#1A1918" points="2.841 33.197 8.264 33.197 8.264 30.486 2.841 30.486"/></g></g></g></g></svg>