<svg xmlns="http://www.w3.org/2000/svg" xmlns:xlink="http://www.w3.org/1999/xlink" width="64" height="64" version="1.1" viewBox="0 0 64 64"><title>avatar5</title><desc>Created with Sketch.</desc><g id="Page-1" fill="none" fill-rule="evenodd" stroke="none" stroke-width="1"><g id="dfasd" transform="translate(-5133.000000, -3725.000000)"><g id="Group-17" transform="translate(5148.000000, 3730.000000)"><polyline id="Fill-22" fill="#BF665D" points="19 38.684 16.289 38.684 16.289 41.396 21.712 41.396 21.712 38.684 19 38.684"/><polygon id="Fill-23" fill="#69422A" points="29.848 35.971 32.561 35.971 32.561 30.548 29.848 30.548"/><polyline id="Fill-24" fill="#69422A" points="19 44.108 8.152 44.108 8.152 46.82 24.424 46.82 24.424 44.108 19 44.108"/><polyline id="Fill-25" fill="#69422A" points="13.575 35.971 16.289 35.971 16.289 33.26 19 33.26 19 30.548 16.289 30.548 16.289 19.7 10.865 19.7 10.865 30.548 8.152 30.548 8.152 33.26 10.865 33.26 10.865 35.971 13.575 35.971"/><path id="Fill-26" fill="#7A4C32" d="M21.7118421,27.8361944 L24.4237979,27.8361944 L24.4237979,25.1232659 L21.7118421,25.1232659 L21.7118421,27.8361944 Z M19.0000484,41.3959733 L16.2893897,41.3959733 L16.2893897,38.6843418 L21.7118421,38.6843418 L21.7118421,41.3959733 L19.0000484,41.3959733 L19.0000484,41.3959733 Z M2.72734096,27.8361944 L5.44010739,27.8361944 L5.44010739,25.1232659 L2.72734096,25.1232659 L2.72734096,27.8361944 Z M27.1364022,22.4114722 L27.1364022,19.6996786 L16.2893897,19.6996786 L16.2893897,30.547826 L19.0000484,30.547826 L19.0000484,33.2597817 L16.2893897,33.2597817 L16.2893897,35.9714133 L10.8646675,35.9714133 L10.8646675,33.2597817 L8.15206317,33.2597817 L8.15206317,30.547826 L10.8646675,30.547826 L10.8646675,19.6996786 L0.0155473043,19.6996786 L0.0155473043,35.9714133 L2.72734096,35.9714133 L2.72734096,41.3959733 L5.44010739,41.3959733 L5.44010739,44.107767 L27.1364022,44.107767 L27.1364022,41.3959733 L29.848358,41.3959733 L29.848358,25.1232659 L27.1364022,25.1232659 L27.1364022,22.4114722 L27.1364022,22.4114722 Z"/><polyline id="Fill-27" fill="#1A1918" points="29.848 3.427 5.44 3.427 5.44 .715 .016 .715 .016 19.7 27.136 19.7 27.136 25.123 29.848 25.123 29.848 30.548 32.561 30.548 32.561 6.14 29.848 6.14 29.848 3.427"/><polygon id="Fill-28" fill="#1A1918" points="21.712 27.836 24.424 27.836 24.424 25.123 21.712 25.123"/><polygon id="Fill-29" fill="#1A1918" points="2.727 27.836 5.44 27.836 5.44 25.123 2.727 25.123"/></g></g></g></svg>