<svg xmlns="http://www.w3.org/2000/svg" xmlns:xlink="http://www.w3.org/1999/xlink" width="64" height="64" version="1.1" viewBox="0 0 64 64"><title>avatar8</title><desc>Created with Sketch.</desc><g id="Page-1" fill="none" fill-rule="evenodd" stroke="none" stroke-width="1"><g id="dfasd" transform="translate(-5048.000000, -3805.000000)"><g id="Group-20" transform="translate(5064.000000, 3818.000000)"><polyline id="Fill-14" fill="#96C53E" points="30.25 2.668 30.25 0 27.499 0 27.499 2.668 24.75 2.668 24.75 0 22 0 22 2.668 19.251 2.668 19.251 0 16.5 0 16.5 2.668 13.751 2.668 13.751 0 11 0 11 2.668 8.25 2.668 8.25 0 5.499 0 5.499 2.668 2.749 2.668 2.749 0 0 0 0 10.666 27.499 10.666 27.499 13.334 30.25 13.334 30.25 16 33 16 33 2.668 30.25 2.668"/><polyline id="Fill-15" fill="#E0C88E" points="33 18.501 33 16 30 16 30 21 33 21 33 18.501"/><polygon id="Fill-16" fill="#E0C88E" points="11 25 16 25 16 11 11 11"/><polyline id="Fill-17" fill="#E0C88E" points="13.334 38 24 38 24 35 8 35 8 38 13.334 38"/><polyline id="Fill-18" fill="#E77E62" points="21.334 27 8 27 8 29.5 10.667 29.5 10.667 32 24 32 24 27 21.334 27"/><path id="Fill-19" fill="#F1D798" d="M2.74945199,19.0010096 L5.49923279,19.0010096 L5.49923279,16.3335813 L2.74945199,16.3335813 L2.74945199,19.0010096 Z M13.750548,26.9997875 L24.7496712,26.9997875 L24.7496712,32.3330499 L10.9997808,32.3330499 L10.9997808,29.6660999 L8.25,29.6660999 L8.25,26.9997875 L13.750548,26.9997875 L13.750548,26.9997875 Z M22.0000548,19.0010096 L24.7496712,19.0010096 L24.7496712,16.3335813 L22.0000548,16.3335813 L22.0000548,19.0010096 Z M2.74945199,29.6660999 L2.74945199,32.3330499 L5.49923279,32.3330499 L5.49923279,35 L27.499452,35 L27.499452,32.3330499 L30.2502192,32.3330499 L30.2502192,26.9997875 L33,26.9997875 L33,21.6662061 L30.2502192,21.6662061 L30.2502192,13.6672689 L27.499452,13.6672689 L27.499452,11 L16.4995068,11 L16.4995068,24.3345909 L10.9997808,24.3345909 L10.9997808,11 L0,11 L0,26.9997875 L2.74945199,26.9997875 L2.74945199,29.6660999 L2.74945199,29.6660999 Z"/><polygon id="Fill-20" fill="#1A1918" points="22 19 25 19 25 16 22 16"/><polygon id="Fill-21" fill="#1A1918" points="3 19 6 19 6 16 3 16"/></g></g></g></svg>